<svg xmlns="http://www.w3.org/2000/svg" width="32" height="32" viewBox="0 0 32 32">
  <defs>
    <linearGradient id="gradient1" x1="0%" y1="0%" x2="100%" y2="100%">
      <stop offset="0%" stop-color="#3B82F6"/>
      <stop offset="50%" stop-color="#8B5CF6"/>
      <stop offset="100%" stop-color="#06B6D4"/>
    </linearGradient>
    <linearGradient id="gradient2" x1="0%" y1="0%" x2="100%" y2="100%">
      <stop offset="0%" stop-color="#FFFFFF"/>
      <stop offset="100%" stop-color="#F1F5F9"/>
    </linearGradient>
  </defs>
  
  <!-- Background circle -->
  <circle cx="16" cy="16" r="15" fill="url(#gradient1)" stroke="#1E293B" stroke-width="1"/>
  
  <!-- Letter S -->
  <path d="M8 10 C8 8, 10 6, 12 6 L16 6 C18 6, 20 8, 20 10 C20 12, 18 14, 16 14 L12 14 C10 14, 8 16, 8 18 C8 20, 10 22, 12 22 L16 22 C18 22, 20 20, 20 18" 
        fill="none" 
        stroke="url(#gradient2)" 
        stroke-width="2.5" 
        stroke-linecap="round"/>
  
  <!-- Letter V -->
  <path d="M22 6 L26 20 L30 6" 
        fill="none" 
        stroke="url(#gradient2)" 
        stroke-width="2.5" 
        stroke-linecap="round" 
        stroke-linejoin="round"/>
  
  <!-- Decorative dot -->
  <circle cx="26" cy="26" r="1.5" fill="#FFFFFF" opacity="0.8"/>
</svg>